<?xml version="1.0" standalone="no"?>
<!DOCTYPE svg PUBLIC "-//W3C//DTD SVG 1.1//EN" "http://www.w3.org/Graphics/SVG/1.1/DTD/svg11.dtd">
<svg width="100%" height="100%" viewBox="0 0 300 60" version="1.1" xmlns="http://www.w3.org/2000/svg" xmlns:xlink="http://www.w3.org/1999/xlink" xml:space="preserve" style="fill-rule:evenodd;clip-rule:evenodd;stroke-linejoin:round;stroke-miterlimit:1.41421;">
    <g transform="matrix(2.19428,0,0,1.82303,-89.3206,-274.671)">
        <g transform="matrix(0.44992,0,0,0.541545,8.78086,71.7843)">
            <path d="M87.006,185.531L87.006,168.079C87.006,167.345 86.958,166.66 86.86,166.023C86.763,165.387 86.587,164.758 86.333,164.137C86.078,163.515 85.692,163.021 85.176,162.654C84.659,162.287 84.027,162.104 83.278,162.104C82.544,162.104 81.915,162.287 81.391,162.654C80.867,163.021 80.481,163.519 80.234,164.148C79.987,164.777 79.811,165.406 79.707,166.035C79.602,166.664 79.549,167.345 79.549,168.079L79.549,185.531C79.549,189.499 80.792,191.483 83.278,191.483C85.763,191.483 87.006,189.499 87.006,185.531ZM71.374,183.711L71.374,170.123C71.374,168.46 71.497,166.933 71.744,165.541C71.991,164.148 72.403,162.838 72.979,161.61C73.556,160.382 74.293,159.349 75.192,158.51C76.09,157.672 77.225,157.009 78.595,156.523C79.965,156.036 81.526,155.793 83.278,155.793C85.03,155.793 86.591,156.036 87.961,156.523C89.331,157.009 90.465,157.672 91.364,158.51C92.262,159.349 93,160.382 93.576,161.61C94.153,162.838 94.564,164.148 94.812,165.541C95.059,166.933 95.182,168.46 95.182,170.123L95.182,183.509C95.182,189.05 93.587,193.16 90.398,195.84C90.847,196.814 92.165,197.3 94.351,197.3L94.351,202.264C90.278,202.264 87.283,200.752 85.367,197.727C84.723,197.802 83.982,197.839 83.143,197.839C81.137,197.839 79.37,197.491 77.842,196.795C76.315,196.099 75.087,195.114 74.159,193.841C73.23,192.569 72.534,191.086 72.07,189.394C71.606,187.702 71.374,185.808 71.374,183.711Z" style="fill:white;fill-rule:nonzero;"/>
        </g>
        <g transform="matrix(0.44992,0,0,0.541545,8.78086,71.7843)">
            <path d="M99.292,181.982L99.292,156.579L107.468,156.579L107.468,181.735C107.468,183.172 107.476,184.217 107.491,184.868C107.506,185.52 107.543,186.313 107.603,187.249C107.663,188.185 107.768,188.84 107.917,189.214C108.067,189.589 108.273,189.993 108.535,190.427C108.797,190.862 109.138,191.146 109.557,191.281C109.976,191.416 110.486,191.483 111.084,191.483C111.683,191.483 112.193,191.416 112.612,191.281C113.031,191.146 113.372,190.865 113.634,190.439C113.896,190.012 114.102,189.611 114.251,189.237C114.401,188.863 114.506,188.215 114.566,187.294C114.626,186.373 114.663,185.594 114.678,184.958C114.693,184.322 114.701,183.292 114.701,181.87C114.701,181.81 114.701,181.765 114.701,181.735L114.701,156.579L122.876,156.579L122.876,181.982C122.876,183.27 122.839,184.438 122.764,185.486C122.689,186.534 122.547,187.62 122.337,188.743C122.128,189.866 121.843,190.858 121.484,191.719C121.125,192.58 120.645,193.403 120.046,194.189C119.447,194.976 118.74,195.623 117.924,196.132C117.108,196.641 116.123,197.046 114.97,197.345C113.817,197.645 112.522,197.794 111.084,197.794C109.647,197.794 108.352,197.645 107.199,197.345C106.046,197.046 105.065,196.641 104.256,196.132C103.448,195.623 102.744,194.976 102.145,194.189C101.546,193.403 101.067,192.58 100.708,191.719C100.348,190.858 100.06,189.866 99.843,188.743C99.626,187.62 99.48,186.534 99.405,185.486C99.33,184.438 99.292,183.27 99.292,181.982Z" style="fill:white;fill-rule:nonzero;"/>
        </g>
        <g transform="matrix(0.44992,0,0,0.541545,8.78086,71.7843)">
            <path d="M126.987,183.711L126.987,170.123C126.987,160.569 130.925,155.793 138.801,155.793C146.693,155.793 150.638,160.569 150.638,170.123L150.638,183.509C150.638,185.127 150.518,186.62 150.279,187.99C150.039,189.36 149.631,190.659 149.055,191.887C148.478,193.115 147.744,194.16 146.854,195.021C145.963,195.882 144.836,196.559 143.473,197.053C142.111,197.547 140.553,197.794 138.801,197.794C137.064,197.794 135.514,197.551 134.152,197.064C132.789,196.578 131.666,195.919 130.783,195.088C129.899,194.257 129.169,193.239 128.593,192.033C128.016,190.828 127.604,189.544 127.357,188.181C127.11,186.819 126.987,185.329 126.987,183.711ZM142.462,185.553L142.462,168.079C142.462,164.096 141.242,162.104 138.801,162.104C138.068,162.104 137.446,162.287 136.937,162.654C136.428,163.021 136.054,163.523 135.814,164.159C135.574,164.796 135.406,165.425 135.309,166.046C135.211,166.667 135.163,167.345 135.163,168.079L135.163,185.553C135.163,189.521 136.375,191.505 138.801,191.505C141.242,191.505 142.462,189.521 142.462,185.553Z" style="fill:white;fill-rule:nonzero;"/>
        </g>
        <g transform="matrix(0.44992,0,0,0.541545,8.78086,71.7843)">
            <path d="M158.342,197.008L158.342,162.688L152.413,162.688L152.413,156.579L172.335,156.579L172.335,162.688L166.518,162.688L166.518,197.008L158.342,197.008Z" style="fill:white;fill-rule:nonzero;"/>
        </g>
        <g transform="matrix(0.44992,0,0,0.541545,8.78086,71.7843)">
            <rect x="175.053" y="156.579" width="8.176" height="40.43" style="fill:white;"/>
        </g>
        <g transform="matrix(0.44992,0,0,0.541545,8.78086,71.7843)">
            <path d="M188.036,197.008L188.036,156.579L196.481,156.579C199.176,156.579 201.396,156.822 203.141,157.309C204.885,157.795 206.255,158.596 207.251,159.712C208.247,160.828 208.936,162.164 209.317,163.721C209.699,165.279 209.89,167.263 209.89,169.673L209.89,182.925C209.89,184.363 209.845,185.617 209.755,186.688C209.666,187.758 209.497,188.806 209.25,189.832C209.003,190.858 208.666,191.726 208.239,192.438C207.812,193.149 207.262,193.811 206.588,194.425C205.915,195.039 205.102,195.526 204.151,195.885C203.201,196.245 202.085,196.522 200.805,196.716C199.524,196.911 198.053,197.008 196.391,197.008L188.036,197.008ZM196.526,191.281C197.305,191.281 197.918,191.27 198.368,191.247C198.817,191.225 199.266,191.168 199.715,191.079C200.165,190.989 200.494,190.865 200.704,190.708C200.913,190.551 201.108,190.322 201.288,190.023C201.467,189.724 201.583,189.368 201.636,188.956C201.688,188.544 201.714,188.031 201.714,187.418L201.714,165.653C201.714,164.32 201.318,163.437 200.524,163.002C199.73,162.568 198.398,162.344 196.526,162.329L196.526,191.281Z" style="fill:white;fill-rule:nonzero;"/>
        </g>
        <g transform="matrix(0.44992,0,0,0.541545,8.78086,71.7843)">
            <rect x="214.18" y="156.579" width="8.176" height="40.43" style="fill:white;"/>
        </g>
        <g transform="matrix(0.44992,0,0,0.541545,8.78086,71.7843)">
            <path d="M235.204,183.33L239.381,183.33L237.337,168.326L235.204,183.33ZM224.961,197.008L233.699,156.579L240.931,156.579L249.646,197.008L241.583,197.008L239.92,188.361L234.642,188.361L233.07,197.008L224.961,197.008Z" style="fill:white;fill-rule:nonzero;"/>
        </g>
        <g transform="matrix(0.44992,0,0,0.541545,8.78086,71.7843)">
            <path d="M252.251,197.008L252.251,156.556L258.136,156.556L267.008,177.714L267.008,156.556L273.791,156.556L273.791,197.008L268.131,197.008L259.282,174.57L259.282,197.008L252.251,197.008Z" style="fill:white;fill-rule:nonzero;"/>
        </g>
        <g transform="matrix(0.44992,0,0,0.541545,8.78086,71.7843)">
            <path d="M278.082,183.711L278.082,170.123C278.082,160.569 282.02,155.793 289.896,155.793C297.787,155.793 301.733,160.569 301.733,170.123L301.733,183.509C301.733,185.127 301.613,186.62 301.374,187.99C301.134,189.36 300.726,190.659 300.149,191.887C299.573,193.115 298.839,194.16 297.948,195.021C297.057,195.882 295.93,196.559 294.568,197.053C293.205,197.547 291.648,197.794 289.896,197.794C288.159,197.794 286.609,197.551 285.247,197.064C283.884,196.578 282.761,195.919 281.877,195.088C280.994,194.257 280.264,193.239 279.687,192.033C279.111,190.828 278.699,189.544 278.452,188.181C278.205,186.819 278.082,185.329 278.082,183.711ZM293.557,185.553L293.557,168.079C293.557,164.096 292.337,162.104 289.896,162.104C289.162,162.104 288.541,162.287 288.032,162.654C287.523,163.021 287.148,163.523 286.909,164.159C286.669,164.796 286.501,165.425 286.403,166.046C286.306,166.667 286.257,167.345 286.257,168.079L286.257,185.553C286.257,189.521 287.47,191.505 289.896,191.505C292.337,191.505 293.557,189.521 293.557,185.553Z" style="fill:white;fill-rule:nonzero;"/>
        </g>
        <g transform="matrix(0.44992,0,0,0.541545,8.78086,71.7843)">
            <rect x="305.843" y="189.888" width="7.3" height="7.12" style="fill:white;"/>
        </g>
        <g transform="matrix(0.44992,0,0,0.541545,8.78086,71.7843)">
            <path d="M318.624,197.008L318.624,158.353L321.251,158.353L333.493,188.967L333.493,158.353L336.39,158.353L336.39,197.008L333.83,197.008L321.566,167.045L321.566,197.008L318.624,197.008Z" style="fill:white;fill-rule:nonzero;"/>
        </g>
        <g transform="matrix(0.44992,0,0,0.541545,8.78086,71.7843)">
            <path d="M342.949,197.008L342.949,158.353L356.425,158.353L356.425,161.093L346.363,161.093L346.363,175.738L353.55,175.738L353.55,178.321L346.363,178.321L346.363,194.268L356.425,194.268L356.425,197.008L342.949,197.008Z" style="fill:white;fill-rule:nonzero;"/>
        </g>
        <g transform="matrix(0.44992,0,0,0.541545,8.78086,71.7843)">
            <path d="M364.242,197.008L364.242,161.093L356.717,161.093L356.717,158.353L375.248,158.353L375.248,161.093L367.656,161.093L367.656,197.008L364.242,197.008Z" style="fill:white;fill-rule:nonzero;"/>
        </g>
    </g>
</svg>
